<?xml version="1.0" standalone="no"?>
<!DOCTYPE svg PUBLIC "-//W3C//DTD SVG 20010904//EN"
 "http://www.w3.org/TR/2001/REC-SVG-20010904/DTD/svg10.dtd">
<svg version="1.0" xmlns="http://www.w3.org/2000/svg"
 width="128.000000pt" height="128.000000pt" viewBox="0 0 128.000000 128.000000"
 preserveAspectRatio="xMidYMid meet">
<metadata>
Created by potrace 1.11, written by Peter Selinger 2001-2013
</metadata>
<g transform="translate(0.000000,128.000000) scale(0.100000,-0.100000)"
fill="#000000" stroke="none">
<path d="M589 1248 c-37 -42 -148 -197 -218 -307 -73 -115 -140 -259 -153
-330 -23 -125 23 -264 121 -362 63 -62 129 -98 211 -114 l55 -11 5 -56 c6 -62
12 -73 34 -65 10 4 16 24 18 64 l3 58 49 7 c121 17 248 114 307 234 42 85 52
209 24 295 -40 123 -146 304 -296 506 -92 124 -111 134 -160 81z m117 -110
c151 -205 247 -368 284 -478 70 -208 -73 -448 -285 -477 l-45 -6 0 311 c0 254
-2 311 -14 315 -33 13 -36 -14 -36 -321 l0 -305 -41 6 c-59 8 -147 54 -195
103 -55 55 -91 126 -106 211 -10 62 -9 75 11 141 25 84 80 191 158 312 73 111
191 270 201 270 4 0 35 -37 68 -82z"/>
</g>
</svg>
